<svg width="20" height="20" viewBox="0 0 20 20" fill="none" xmlns="http://www.w3.org/2000/svg">
<g clip-path="url(#clip0_8_47)">
<path d="M11.875 1.875C11.875 2.37228 11.6774 2.84919 11.3258 3.20083C10.9742 3.55246 10.4973 3.75 9.99998 3.75C9.5027 3.75 9.02579 3.55246 8.67415 3.20083C8.32252 2.84919 8.12498 2.37228 8.12498 1.875C8.12498 1.37772 8.32252 0.900805 8.67415 0.549175C9.02579 0.197544 9.5027 0 9.99998 0C10.4973 0 10.9742 0.197544 11.3258 0.549175C11.6774 0.900805 11.875 1.37772 11.875 1.875ZM8.04998 4.69C8.13783 4.59108 8.24562 4.51186 8.36626 4.45757C8.48691 4.40328 8.61768 4.37514 8.74998 4.375H10.5562C11.4837 4.375 12.2062 5.17875 12.11 6.1L11.5725 11.2038C11.5545 11.3719 11.5176 11.5376 11.4625 11.6975L11.065 12.83L11.3312 13.1325C11.3881 13.1989 11.436 13.2724 11.4737 13.3512L13.9737 18.6637C14.0299 18.7756 14.0631 18.8976 14.0714 19.0224C14.0797 19.1473 14.0628 19.2726 14.0219 19.3909C13.981 19.5092 13.9169 19.6181 13.8332 19.7111C13.7495 19.8042 13.6481 19.8796 13.5348 19.9329C13.4215 19.9861 13.2988 20.0162 13.1737 20.0212C13.0487 20.0262 12.9239 20.0062 12.8067 19.9622C12.6895 19.9183 12.5823 19.8513 12.4914 19.7653C12.4005 19.6792 12.3278 19.5759 12.2775 19.4613L9.83248 14.2688L7.73248 11.8675C7.57086 11.6839 7.48742 11.4443 7.49998 11.2L7.67248 7.93375L7.12873 8.545L6.54873 12.0275C6.50795 12.2728 6.37139 12.4919 6.16909 12.6365C5.96678 12.7812 5.71531 12.8395 5.46998 12.7987C5.22465 12.758 5.00558 12.6214 4.86094 12.4191C4.7163 12.2168 4.65795 11.9653 4.69873 11.72L5.32373 7.97C5.35303 7.79566 5.43103 7.63316 5.54873 7.50125L8.04873 4.68875L8.04998 4.69Z" fill="white"/>
<path d="M7.81251 14.6812V12.9087L9.31751 14.6275L9.64376 15.2825C9.60986 15.3863 9.55919 15.4838 9.49376 15.5712L6.36876 19.6337C6.21725 19.831 5.9936 19.96 5.74699 19.9923C5.50038 20.0247 5.25102 19.9577 5.05376 19.8062C4.85651 19.6547 4.72751 19.4311 4.69516 19.1844C4.66281 18.9378 4.72976 18.6885 4.88126 18.4912L7.81251 14.6812ZM13.0875 9.41247L12.47 8.79497L12.7263 6.49122L12.7338 6.40747L14.1388 7.81247H15.9388C16.1874 7.81247 16.4259 7.91124 16.6017 8.08706C16.7775 8.26287 16.8763 8.50133 16.8763 8.74997C16.8763 8.99861 16.7775 9.23707 16.6017 9.41288C16.4259 9.5887 16.1874 9.68747 15.9388 9.68747H13.75C13.6267 9.68753 13.5046 9.66327 13.3907 9.61608C13.2769 9.56889 13.1734 9.4997 13.0863 9.41247H13.0875Z" fill="white"/>
</g>
<defs>
<clipPath id="clip0_8_47">
<rect width="20" height="20"/>
</clipPath>
</defs>
</svg>
